<svg width="68" height="42" viewBox="0 0 68 42" fill="none" xmlns="http://www.w3.org/2000/svg">
<path d="M9.59 13.51C9.59 12.95 9.40333 12.495 9.03 12.145C8.68 11.795 8.02667 11.445 7.07 11.095L4.095 9.975C1.505 9.01833 0.209999 7.385 0.209999 5.075C0.209999 3.55833 0.793332 2.33333 1.96 1.4C3.15 0.466666 4.70166 0 6.615 0C8.45833 0 10.1967 0.373334 11.83 1.12V3.57C10.01 2.98667 8.33 2.695 6.79 2.695C4.55 2.695 3.43 3.45333 3.43 4.97C3.43 5.57667 3.61666 6.055 3.99 6.405C4.36333 6.755 5.09833 7.14 6.195 7.56L8.925 8.61C10.3017 9.14667 11.2933 9.78833 11.9 10.535C12.5067 11.2583 12.81 12.2033 12.81 13.37C12.81 15.0267 12.1917 16.345 10.955 17.325C9.71834 18.305 8.07333 18.795 6.02 18.795C3.71 18.795 1.70333 18.3517 0 17.465V15.015C2.19333 15.7383 4.22333 16.1 6.09 16.1C7.23333 16.1 8.09667 15.8783 8.68 15.435C9.28667 14.9917 9.59 14.35 9.59 13.51Z" fill="#0096D6"/>
<path d="M26.9724 18.27V6.405C26.9724 5.16833 26.7157 4.25833 26.2024 3.675C25.7124 3.09167 24.9308 2.8 23.8574 2.8C22.0141 2.8 20.2058 3.395 18.4324 4.585V18.27H14.9674V0.525H17.8724L18.2224 2.485C20.4391 0.828333 22.7724 0 25.2224 0C26.9258 0 28.2208 0.455 29.1074 1.365C29.9941 2.25167 30.4374 3.54667 30.4374 5.25V18.27H26.9724Z" fill="#0096D6"/>
<path d="M44.5736 18.27L44.2936 16.45C43.4536 17.1733 42.5203 17.7333 41.4936 18.13C40.4903 18.5267 39.4869 18.725 38.4836 18.725C36.8269 18.725 35.4969 18.2583 34.4936 17.325C33.5136 16.3683 33.0236 15.0967 33.0236 13.51C33.0236 11.8067 33.6303 10.4533 34.8436 9.45C36.0569 8.42333 37.6903 7.91 39.7436 7.91C41.0969 7.91 42.5669 8.10833 44.1536 8.505V6.195C44.1536 4.935 43.8619 4.04833 43.2786 3.535C42.7186 3.02167 41.7503 2.765 40.3736 2.765C38.3903 2.765 36.3369 3.12667 34.2136 3.85V1.4C35.0536 0.956666 36.0803 0.618331 37.2936 0.384998C38.5069 0.128332 39.7319 0 40.9686 0C43.1853 0 44.8186 0.466666 45.8686 1.4C46.9186 2.31 47.4436 3.71 47.4436 5.6V18.27H44.5736ZM39.3236 16.1C40.9103 16.1 42.5203 15.505 44.1536 14.315V10.745C42.9403 10.4417 41.7036 10.29 40.4436 10.29C37.8069 10.29 36.4886 11.305 36.4886 13.335C36.4886 14.2217 36.7336 14.91 37.2236 15.4C37.7136 15.8667 38.4136 16.1 39.3236 16.1Z" fill="#0096D6"/>
<path d="M51.2006 25.48V0.525H54.1056L54.4206 2.345C56.1939 0.781666 58.1656 0 60.3356 0C62.599 0 64.384 0.828333 65.6906 2.485C66.9973 4.11833 67.6506 6.34667 67.6506 9.17C67.6506 12.04 66.9623 14.3383 65.5856 16.065C64.209 17.7917 62.3773 18.655 60.0906 18.655C57.9906 18.655 56.1823 17.9667 54.6656 16.59V25.48H51.2006ZM59.3556 2.8C57.699 2.8 56.1356 3.33667 54.6656 4.41V14.175C56.1823 15.295 57.7223 15.855 59.2856 15.855C62.5056 15.855 64.1156 13.685 64.1156 9.345C64.1156 7.12833 63.719 5.48333 62.9256 4.41C62.1556 3.33667 60.9656 2.8 59.3556 2.8Z" fill="#0096D6"/>
<path fill-rule="evenodd" clip-rule="evenodd" d="M60.4578 32.2795C53.1939 38.0087 42.6652 41.0655 33.6002 41.0655C20.8897 41.0655 9.44692 36.0349 0.790024 27.6682C0.10988 27.0103 0.719287 26.1137 1.53546 26.626C10.8779 32.4426 22.4295 35.9418 34.362 35.9418C42.4095 35.9418 51.2622 34.1601 59.4022 30.463C60.6319 29.904 61.6603 31.3247 60.4578 32.2795Z" fill="#0096D6"/>
<path fill-rule="evenodd" clip-rule="evenodd" d="M63.4776 28.5824C62.5526 27.3131 57.34 27.9827 55.0003 28.2796C54.2875 28.3728 54.1787 27.709 54.8207 27.2316C58.9724 24.105 65.7847 25.0075 66.5791 26.0555C67.3735 27.1093 66.3723 34.4164 62.471 37.904C61.8725 38.4396 61.3012 38.1543 61.5678 37.444C62.4438 35.1034 64.4081 29.8575 63.4776 28.5824Z" fill="#0096D6"/>
</svg>
